<svg id="Gradient" height="512" viewBox="0 0 512 512" width="512" xmlns="http://www.w3.org/2000/svg" xmlns:xlink="http://www.w3.org/1999/xlink"><linearGradient id="linear-gradient" gradientUnits="userSpaceOnUse" x1="256" x2="256" y1="472" y2="39.998"><stop offset="0" stop-color="#27c1e6"/><stop offset=".5" stop-color="#c275e9"/><stop offset="1" stop-color="#f2515d"/></linearGradient><path d="m488 184h-255.749c4.784-14.974 7.749-28.774 7.749-40 0-25.735-10.712-45.974-30.162-56.986-9.749-5.52-21.151-8.4-33.769-8.7l.01-6.269a24.03 24.03 0 0 0 -23.947-24.045h-.055a24 24 0 0 0 -24 23.961l-.026 15.506a220.707 220.707 0 0 0 -35.807 17.457c-22.751 10.569-39.236 12.748-46.444 6.136-11.106-10.189-4.844-42.4 1.711-60.3a8 8 0 0 0 -15.018-5.52c-2.118 5.765-20.044 56.911 2.478 77.6 12.871 11.822 33.943 10.646 64.417-3.59a7.958 7.958 0 0 0 .73-.388 216.675 216.675 0 0 1 27.909-14.24l-.027 15.329c0 .206.015.407.03.609h-.008l4.74 63.44h-108.762a8 8 0 0 0 -8 8v192a8 8 0 0 0 2.343 5.657l80 80a8 8 0 0 0 5.657 2.343h384a8 8 0 0 0 8-8v-272a8 8 0 0 0 -8-8zm-312.032-63.334c.017-.2.032-.41.032-.617l.043-25.839c9.781.317 18.518 2.54 25.911 6.727 14.217 8.049 22.046 23.342 22.046 43.063 0 10-2.9 23.478-8.541 40h-44.5l5.012-63.334zm-6.268 79.334h39.818c-6.249 15.693-14.468 33.521-24.581 53.248-7.993 15.591-16.032 30.128-22.767 41.905zm1.046 114.668c4.91 0 12.848 1.492 25.321 7.113 4.5 2.027 8.744 4.224 12.356 6.219-3.612 2-7.858 4.192-12.356 6.219-20.867 9.405-29.038 7.252-31.583 5.889-2.623-1.406-4.1-4.745-4.417-9.934 1.736-2.817 5.013-8.192 9.29-15.459.434-.027.89-.047 1.386-.047zm-26.667-242.681a8 8 0 0 1 8-7.987h.019a8.009 8.009 0 0 1 7.982 8.013l-.012 7.2a131.46 131.46 0 0 0 -16 3.161zm-.045 26.891a120.237 120.237 0 0 1 16.007-3.625l-.027 16.765-16-.036zm4.773 85.122-4.186-56.016 14.723.032-4.43 55.984zm4.84 16-1.875 23.693-1.772-23.693zm-64.04 238.294-50.84-50.841a93.4 93.4 0 0 1 54.366 1.147c-5.41 14.167-6.582 30.438-3.526 49.694zm390.393 17.706h-370.034c-8.358-29.425-7.988-51.214 1.093-68.234a8 8 0 0 0 -4.087-11.194c-24.863-9.947-50.031-11.218-74.972-3.818v-172.754h101.958l9.607 128.6a8 8 0 0 0 .515 2.283c.793 13.938 7.322 20.376 12.855 23.337a28.721 28.721 0 0 0 13.769 3.149c8.725 0 19.366-2.875 32.133-8.648 5.673-2.566 10.91-5.333 15.151-7.73a23.074 23.074 0 0 0 10.947 13.229 28.721 28.721 0 0 0 13.769 3.149c8.725 0 19.366-2.875 32.133-8.648 5.673-2.566 10.91-5.333 15.151-7.73a23.074 23.074 0 0 0 10.947 13.229 28.721 28.721 0 0 0 13.769 3.149c8.725 0 19.366-2.875 32.133-8.648 5.673-2.566 10.91-5.333 15.151-7.73a23.074 23.074 0 0 0 10.947 13.229 28.721 28.721 0 0 0 13.769 3.149c8.725 0 19.366-2.875 32.133-8.648a199.487 199.487 0 0 0 25.6-14.061 8 8 0 0 0 0-13.312 199.487 199.487 0 0 0 -25.6-14.061c-20.488-9.266-35.5-11.067-45.9-5.5a23.074 23.074 0 0 0 -10.947 13.229c-4.241-2.4-9.478-5.164-15.151-7.73-20.488-9.266-35.5-11.067-45.9-5.5a23.074 23.074 0 0 0 -10.947 13.229c-4.241-2.4-9.478-5.164-15.151-7.73-20.488-9.266-35.5-11.067-45.9-5.5a23.074 23.074 0 0 0 -10.947 13.229c-4.241-2.4-9.478-5.164-15.151-7.73-9.293-4.2-17.449-6.853-24.57-7.994 14.978-26.4 35.219-64.561 48.376-99.289h253.351zm-248-128c0-6.441 1.508-10.515 4.481-12.108a13.245 13.245 0 0 1 6.262-1.224c4.91 0 12.848 1.492 25.321 7.113 4.5 2.027 8.744 4.224 12.356 6.219-3.612 2-7.858 4.192-12.356 6.219-20.868 9.405-29.038 7.252-31.583 5.889-2.973-1.593-4.481-5.667-4.481-12.108zm72 0c0-6.441 1.508-10.515 4.481-12.108a13.245 13.245 0 0 1 6.262-1.224c4.91 0 12.848 1.492 25.321 7.113 4.5 2.027 8.744 4.224 12.356 6.219-3.612 2-7.858 4.192-12.356 6.219-20.867 9.405-29.037 7.252-31.583 5.889-2.973-1.593-4.481-5.667-4.481-12.108zm72 0c0-6.441 1.508-10.515 4.481-12.108a13.245 13.245 0 0 1 6.262-1.224c4.91 0 12.848 1.492 25.321 7.113 4.5 2.027 8.744 4.224 12.356 6.219-3.612 2-7.858 4.192-12.356 6.219-20.867 9.405-29.038 7.252-31.583 5.889-2.973-1.593-4.481-5.667-4.481-12.108z" fill="url(#linear-gradient)"/></svg>